<svg width="14" height="12" viewBox="0 0 14 12" fill="none" xmlns="http://www.w3.org/2000/svg">
<path d="M3.51386 3.0182H2.42476C2.41417 3.0182 2.40279 3.0186 2.39024 3.02018L2.38005 3.02097L2.37259 3.02217C2.20239 3.0507 2.08277 3.20878 2.10002 3.38391L2.1012 3.39382L2.11454 3.49208C2.1565 3.80232 2.19415 4.02302 2.22788 4.1609L2.23063 4.1712C2.25925 4.28571 2.3122 4.44658 2.39221 4.65895C2.50986 4.97118 2.80557 5.17721 3.135 5.17721H3.51386C3.59347 5.17721 3.65818 5.11182 3.65818 5.02939V3.16599C3.65818 3.08358 3.59347 3.0182 3.51386 3.0182ZM11.5767 3.0182H10.4876C10.408 3.0182 10.3433 3.08358 10.3433 3.16599V5.02939C10.3433 5.11182 10.408 5.17721 10.4876 5.17721H10.8664C11.1959 5.17721 11.4916 4.97118 11.6092 4.65895L11.6339 4.59239C11.6975 4.42003 11.7417 4.28452 11.7676 4.18349L11.7708 4.1712C11.8084 4.02064 11.8516 3.76429 11.9002 3.39382L11.9014 3.38391C11.9187 3.20878 11.799 3.0507 11.6288 3.02217L11.6213 3.02097L11.6112 3.02018C11.603 3.019 11.5951 3.0186 11.5876 3.0182H11.5767ZM9.12934 1.93866H4.87218V5.21384C4.87218 6.39497 5.80676 7.35339 6.96564 7.37241L7.00058 7.37282C8.17594 7.37282 9.12934 6.40682 9.12934 5.21384V1.93866ZM9.57886 0.75C9.98008 0.75 10.306 1.07965 10.306 1.48658V1.84198C10.3652 1.83366 10.426 1.8297 10.4876 1.8297H11.5767C11.641 1.8297 11.7053 1.83366 11.77 1.84198L11.7747 1.84278C12.5971 1.95332 13.1748 2.71723 13.0666 3.5493L13.0552 3.63409C13.0054 4.00337 12.9595 4.27121 12.9117 4.46298C12.8697 4.62939 12.8034 4.83028 12.7089 5.08189C12.4175 5.85492 11.6841 6.36604 10.8664 6.36604H10.4876C10.3613 6.36604 10.2389 6.34819 10.1228 6.31453C9.67377 7.62283 8.44544 8.56147 7.00064 8.56147C5.55584 8.56147 4.32791 7.62283 3.87847 6.31453C3.76278 6.34819 3.64041 6.36604 3.51373 6.36604H3.13489C2.31718 6.36604 1.58379 5.85492 1.29279 5.08189L1.27201 5.02682C1.19161 4.80967 1.13356 4.63177 1.09474 4.48161L1.09004 4.46298C1.03827 4.25695 0.988851 3.96256 0.934729 3.5493C0.827664 2.72556 1.3928 1.96878 2.20227 1.84594L2.23168 1.84198C2.296 1.83366 2.36032 1.8297 2.42464 1.8297H3.51373C3.5757 1.8297 3.6361 1.83366 3.69571 1.84198V1.48658C3.69571 1.07965 4.02122 0.75 4.42282 0.75H9.57886ZM5.62365 9.57595H8.37795C8.82939 9.57595 9.19683 9.94327 9.20389 10.3989L9.2043 10.4128C9.2043 10.8748 8.83406 11.25 8.37795 11.25H5.62365C5.17185 11.25 4.80477 10.8823 4.79732 10.4266V10.4128C4.79732 9.9508 5.16754 9.57595 5.62365 9.57595Z" fill="#888889"/>
</svg>
